<svg width="16" height="6" viewBox="0 0 16 6" fill="none" xmlns="http://www.w3.org/2000/svg">
<path d="M15.7812 4.90788L12.6656 3.8866C12.525 3.8405 12.3343 3.81489 12.1343 3.81489H11.625C12.4875 3.45329 13 2.99848 13 2.50371C13 1.32673 10.0906 0.373047 6.49998 0.373047C2.90937 0.373047 0 1.32673 0 2.50371C0 3.6807 2.90937 4.63438 6.49998 4.63438C8.00935 4.63438 9.39684 4.46638 10.5 4.18366V4.35063C10.5 4.41619 10.5781 4.47868 10.7187 4.52477L13.8343 5.54606C14.1281 5.64235 14.6031 5.64235 14.8937 5.54606L15.7781 5.25617C16.0718 5.15988 16.0718 5.00417 15.7812 4.90788ZM6.49998 3.81489C4.29061 3.81489 2.49999 3.22896 2.49999 2.50371C2.49999 1.77949 4.28749 1.19253 6.49998 1.19253C8.70935 1.19253 10.5 1.77847 10.5 2.50371C10.5 3.22794 8.71247 3.81489 6.49998 3.81489Z" fill="#272D4E"/>
</svg>
